<svg xmlns="http://www.w3.org/2000/svg" width="64" height="64" viewBox="0 0 64 64" fill="none" data-inject-url="https://22271054.fs1.hubspotusercontent-na1.net/hubfs/22271054/yoga-pose.svg" class="svgInject" loading="lazy" style="max-width: 100%; height: auto;">
<path d="M13.5068 44.5698C11.3027 41.1887 10.0259 37.1712 10.0259 32.8487C10.0125 20.8757 19.8638 11.1699 31.9999 11.1699C44.1359 11.1699 53.9872 20.8757 53.9872 32.862C53.9872 37.1845 52.7105 41.202 50.5064 44.5831" stroke="#060A10" stroke-width="2.5" stroke-linecap="round" stroke-linejoin="round" style="stroke-dasharray: 94, 96; stroke-dashoffset: 95;"/>
<path d="M32 42.5542V51.8224" stroke="#060A10" stroke-width="2.5" stroke-linecap="round" stroke-linejoin="round" style="stroke-dasharray: 10, 12; stroke-dashoffset: 11;"/>
<path d="M35.2925 57.67V61.0113H46.9447C49.6058 61.0113 51.7696 58.8766 51.7696 56.2513C51.7696 53.6259 49.6058 51.4912 46.9447 51.4912H37.6848" stroke="#060A10" stroke-width="2.5" stroke-linecap="round" stroke-linejoin="round" style="stroke-dasharray: 40, 42; stroke-dashoffset: 41;"/>
<path d="M28.7071 57.67V61.0113H17.0548C14.3938 61.0113 12.23 58.8766 12.23 56.2513C12.23 53.6259 14.3938 51.4912 17.0548 51.4912H26.3148" stroke="#060A10" stroke-width="2.5" stroke-linecap="round" stroke-linejoin="round" style="stroke-dasharray: 40, 42; stroke-dashoffset: 41;"/>
<path d="M32.0002 18.3696C29.8095 19.205 28.2505 21.3132 28.2505 23.7661C28.2505 26.2191 29.8095 28.3273 32.0002 29.1626C34.1908 28.3273 35.7499 26.2191 35.7499 23.7661C35.7499 21.3132 34.1908 19.205 32.0002 18.3696V18.3696Z" stroke="#060A10" stroke-width="2.5" stroke-linecap="round" stroke-linejoin="round" style="stroke-dasharray: 28, 30; stroke-dashoffset: 29;"/>
<path d="M23.5062 45.206H20.106C20.106 45.206 20.9661 36.866 32.0001 34.4263C38.9619 36.0439 42.4294 39.6239 43.3701 45.206H39.8624" stroke="#060A10" stroke-width="2.5" stroke-linecap="round" stroke-linejoin="round" style="stroke-dasharray: 41, 43; stroke-dashoffset: 42;"/>
<path d="M59.686 32.5435H61.9842" stroke="#060A10" stroke-width="2.5" stroke-linecap="round" stroke-linejoin="round" style="stroke-dasharray: 3, 5; stroke-dashoffset: 4;"/>
<path d="M51.5952 13.2118L53.208 11.6074" stroke="#060A10" stroke-width="2.5" stroke-linecap="round" stroke-linejoin="round" style="stroke-dasharray: 3, 5; stroke-dashoffset: 4;"/>
<path d="M4.31431 32.5435H2.01611" stroke="#060A10" stroke-width="2.5" stroke-linecap="round" stroke-linejoin="round" style="stroke-dasharray: 3, 5; stroke-dashoffset: 4;"/>
<path d="M12.4048 13.2118L10.792 11.6074" stroke="#060A10" stroke-width="2.5" stroke-linecap="round" stroke-linejoin="round" style="stroke-dasharray: 3, 5; stroke-dashoffset: 4;"/>
<path d="M32 5.25609V2.98877" stroke="#060A10" stroke-width="2.5" stroke-linecap="round" stroke-linejoin="round" style="stroke-dasharray: 3, 5; stroke-dashoffset: 4;"/>
</svg>