<svg xmlns="http://www.w3.org/2000/svg" width="64" height="64" viewBox="0 0 64 64" fill="none" data-inject-url="https://22271054.fs1.hubspotusercontent-na1.net/hubfs/22271054/natural.svg" class="svgInject" loading="lazy" style="max-width: 100%; height: auto;">
<path d="M53.5683 46.6635C54.1053 47.2324 54.4007 47.842 54.4007 48.4651C54.4007 52.1361 44.3718 55.1162 32.0068 55.1162C19.6417 55.1162 9.61279 52.1361 9.61279 48.4651C9.61279 46.65 12.0428 45.0109 15.99 43.8188" stroke="#060A10" stroke-width="2.5" stroke-linecap="round" stroke-linejoin="round" style="stroke-dasharray: 60, 62; stroke-dashoffset: 61;"/>
<path d="M58.9786 43.0059C60.9119 44.6586 61.9994 46.5144 61.9994 48.4785C61.9994 55.3734 48.5738 60.9679 32.0065 60.9679C15.4393 60.9679 2.01367 55.3734 2.01367 48.465C2.01367 44.6721 6.08164 41.2721 12.4991 38.9692" stroke="#060A10" stroke-width="2.5" stroke-linecap="round" stroke-linejoin="round" style="stroke-dasharray: 92, 94; stroke-dashoffset: 93;"/>
<path d="M26.301 44.5773C21.9645 42.1661 5.51813 30.4895 31.8189 3.03174C33.618 4.56244 40.0757 11.3625 43.9691 19.883" stroke="#060A10" stroke-width="2.5" stroke-linecap="round" stroke-linejoin="round" style="stroke-dasharray: 71, 73; stroke-dashoffset: 72;"/>
<path d="M22.7969 29.2974C22.7969 29.2974 22.9848 35.4066 26.9185 38.0345" stroke="#060A10" stroke-width="2.5" stroke-linecap="round" stroke-linejoin="round" style="stroke-dasharray: 10, 12; stroke-dashoffset: 11;"/>
<path d="M30.5972 50.4429L47.7283 33.1582" stroke="#060A10" stroke-width="2.5" stroke-linecap="round" stroke-linejoin="round" style="stroke-dasharray: 25, 27; stroke-dashoffset: 26;"/>
<path d="M43.2305 32.5757V37.6283H47.8355" stroke="#060A10" stroke-width="2.5" stroke-linecap="round" stroke-linejoin="round" style="stroke-dasharray: 10, 12; stroke-dashoffset: 11;"/>
<path d="M38.2495 37.8857V42.9249H42.8411" stroke="#060A10" stroke-width="2.5" stroke-linecap="round" stroke-linejoin="round" style="stroke-dasharray: 10, 12; stroke-dashoffset: 11;"/>
<path d="M31.9663 42.3289C31.9663 44.4421 32.3557 46.4604 33.0538 48.3162C34.8125 48.98 36.7056 49.3728 38.6926 49.3728C47.7012 49.3728 55.0047 41.8548 55.0047 32.5893C55.0047 30.4761 54.6154 28.4578 53.9172 26.602C52.1585 25.9382 50.2654 25.5454 48.2785 25.5454C39.2699 25.5454 31.9663 33.0634 31.9663 42.3289V42.3289Z" stroke="#060A10" stroke-width="2.5" stroke-linecap="round" stroke-linejoin="round" style="stroke-dasharray: 76, 78; stroke-dashoffset: 77;"/>
</svg>