<svg xmlns="http://www.w3.org/2000/svg" width="64" height="64" viewBox="0 0 64 64" fill="none" data-inject-url="https://22271054.fs1.hubspotusercontent-na1.net/hubfs/22271054/Yoga_Triangle.svg" class="svgInject" loading="">
<path d="M25.4346 36.8222C22.5246 36.4522 20.1146 37.7522 18.1946 39.7022L6.14462 51.9022C5.83462 52.2222 6.05462 52.7622 6.50462 52.7622H24.3946C29.1146 52.7622 32.8846 48.6722 32.3446 43.8322C31.9346 40.2322 29.0346 37.2822 25.4346 36.8222V36.8222Z" stroke="black" stroke-width="2.5" stroke-miterlimit="10" style="stroke-dasharray: 69, 71; stroke-dashoffset: 70;"/>
<path d="M39.3547 36.8222C42.2647 36.4522 44.6747 37.7522 46.5947 39.7022L58.6547 51.9022C58.9647 52.2222 58.7447 52.7622 58.2947 52.7622H40.3947C35.6747 52.7622 31.9047 48.6722 32.4447 43.8322C32.8547 40.2322 35.7547 37.2822 39.3547 36.8222V36.8222Z" stroke="black" stroke-width="2.5" stroke-miterlimit="10" style="stroke-dasharray: 69, 71; stroke-dashoffset: 70;"/>
<path d="M32.4233 32.4575C33.1137 32.4575 33.6733 31.8979 33.6733 31.2075C33.6733 30.5172 33.1137 29.9575 32.4233 29.9575C31.733 29.9575 31.1733 30.5172 31.1733 31.2075C31.1733 31.8979 31.733 32.4575 32.4233 32.4575Z" stroke="black" stroke-width="2.5" stroke-miterlimit="10" style="stroke-dasharray: 8, 10; stroke-dashoffset: 9;"/>
<path d="M40.2344 46.0107C40.9247 46.0107 41.4844 45.4511 41.4844 44.7607C41.4844 44.0704 40.9247 43.5107 40.2344 43.5107C39.544 43.5107 38.9844 44.0704 38.9844 44.7607C38.9844 45.4511 39.544 46.0107 40.2344 46.0107Z" stroke="black" stroke-width="2.5" stroke-miterlimit="10" style="stroke-dasharray: 8, 10; stroke-dashoffset: 9;"/>
<path d="M24.4561 46.0107C25.1464 46.0107 25.7061 45.4511 25.7061 44.7607C25.7061 44.0704 25.1464 43.5107 24.4561 43.5107C23.7657 43.5107 23.2061 44.0704 23.2061 44.7607C23.2061 45.4511 23.7657 46.0107 24.4561 46.0107Z" stroke="black" stroke-width="2.5" stroke-miterlimit="10" style="stroke-dasharray: 8, 10; stroke-dashoffset: 9;"/>
<path d="M25.4246 34.8525C23.9946 32.2925 24.2946 29.5725 25.3746 27.0625L32.1546 11.3025C32.3346 10.8925 32.9146 10.9025 33.0846 11.3125L39.8046 27.9025C41.5746 32.2825 39.1946 37.3125 34.5146 38.6225C31.0246 39.6025 27.1946 38.0125 25.4246 34.8525Z" stroke="black" stroke-width="2.5" stroke-miterlimit="10" style="stroke-dasharray: 69, 71; stroke-dashoffset: 70;"/>
</svg>