<svg xmlns="http://www.w3.org/2000/svg" width="64" height="64" viewBox="0 0 64 64" fill="none" data-inject-url="https://22271054.fs1.hubspotusercontent-na1.net/hubfs/22271054/lotus-1.svg" class="svgInject" loading="lazy" style="max-width: 100%; height: auto;">
<path d="M21.0914 24.5332C19.8104 27.1002 19.0957 29.988 19.0957 33.0362C19.0957 41.4457 24.5298 48.5984 32.1079 51.2322C33.3889 48.6652 34.1035 45.7774 34.1035 42.7292C34.1035 34.3197 28.6694 27.167 21.0914 24.5332Z" stroke="#060A10" stroke-width="2.5" stroke-linecap="round" stroke-linejoin="round" style="stroke-dasharray: 66, 68; stroke-dashoffset: 67;"/>
<path d="M19.3115 30.1351C15.8461 29.0254 12.0975 28.8783 8.51074 29.7875C8.87481 32.6218 9.88612 35.4294 11.5986 37.9696C14.6595 42.542 19.3655 45.4031 24.422 46.2855" stroke="#060A10" stroke-width="2.5" stroke-linecap="round" stroke-linejoin="round" style="stroke-dasharray: 36, 38; stroke-dashoffset: 37;"/>
<path d="M38.3644 25.9104C36.6654 22.7686 34.3731 19.9342 31.5415 17.6079C28.912 20.0679 26.7276 23.0627 25.1904 26.5254" stroke="#060A10" stroke-width="2.5" stroke-linecap="round" stroke-linejoin="round" style="stroke-dasharray: 22, 24; stroke-dashoffset: 23;"/>
<path d="M13.149 39.9751C9.17122 41.0981 5.59793 43.4779 3.02246 46.7936C5.08553 48.799 7.63403 50.3632 10.5601 51.3125C16.5201 53.2511 22.7363 52.1681 27.5501 48.9193" stroke="#060A10" stroke-width="2.5" stroke-linecap="round" stroke-linejoin="round" style="stroke-dasharray: 40, 42; stroke-dashoffset: 41;"/>
<path d="M44.6749 30.1351C48.1404 29.0254 51.8889 28.8783 55.4757 29.7875C55.1116 32.6218 54.1003 35.4294 52.3879 37.9696C49.327 42.542 44.621 45.4031 39.5645 46.2855" stroke="#060A10" stroke-width="2.5" stroke-linecap="round" stroke-linejoin="round" style="stroke-dasharray: 36, 38; stroke-dashoffset: 37;"/>
<path d="M50.8508 39.9751C54.8286 41.0981 58.4019 43.4779 60.9773 46.7936C58.9143 48.799 56.3658 50.3632 53.4397 51.3125C47.4797 53.2511 41.2635 52.1681 36.4497 48.9193" stroke="#060A10" stroke-width="2.5" stroke-linecap="round" stroke-linejoin="round" style="stroke-dasharray: 40, 42; stroke-dashoffset: 41;"/>
<path d="M32.1213 51.2325C34.8047 50.163 37.2723 48.4918 39.3353 46.2189C44.9987 39.962 45.7807 31.0311 41.9108 24.0522C39.2275 25.1218 36.7599 26.793 34.6968 29.0658C33.4832 30.4161 32.4854 31.8868 31.7168 33.4377" stroke="#060A10" stroke-width="2.5" stroke-linecap="round" stroke-linejoin="round" style="stroke-dasharray: 47, 49; stroke-dashoffset: 48;"/>
<path d="M25.959 55.4702C25.959 55.4702 31.0964 58.4383 38.0408 55.4702" stroke="#060A10" stroke-width="2.5" stroke-linecap="round" stroke-linejoin="round" style="stroke-dasharray: 13, 15; stroke-dashoffset: 14;"/>
<path d="M17.9224 58.9463C17.9224 58.9463 29.8963 65.8182 46.0637 58.9463" stroke="#060A10" stroke-width="2.5" stroke-linecap="round" stroke-linejoin="round" style="stroke-dasharray: 30, 32; stroke-dashoffset: 31;"/>
<path d="M12.2188 23.6241C14.6324 15.0275 22.5746 8.73047 32.0134 8.73047C41.4523 8.73047 49.3945 15.0409 51.8081 23.6241" stroke="#060A10" stroke-width="2.5" stroke-linecap="round" stroke-linejoin="round" style="stroke-dasharray: 54, 56; stroke-dashoffset: 55;"/>
<path d="M57.9302 18.3831L59.2921 17.5542" stroke="#060A10" stroke-width="2.5" stroke-linecap="round" stroke-linejoin="round" style="stroke-dasharray: 2, 4; stroke-dashoffset: 3;"/>
<path d="M46.9268 7.58058L47.9246 6.35059" stroke="#060A10" stroke-width="2.5" stroke-linecap="round" stroke-linejoin="round" style="stroke-dasharray: 2, 4; stroke-dashoffset: 3;"/>
<path d="M6.05672 18.4368L4.69482 17.6079" stroke="#060A10" stroke-width="2.5" stroke-linecap="round" stroke-linejoin="round" style="stroke-dasharray: 2, 4; stroke-dashoffset: 3;"/>
<path d="M17.073 7.63399L16.0752 6.39062" stroke="#060A10" stroke-width="2.5" stroke-linecap="round" stroke-linejoin="round" style="stroke-dasharray: 2, 4; stroke-dashoffset: 3;"/>
<path d="M32.0137 3.59635V2.00537" stroke="#060A10" stroke-width="2.5" stroke-linecap="round" stroke-linejoin="round" style="stroke-dasharray: 2, 4; stroke-dashoffset: 3;"/>
</svg>