<svg xmlns="http://www.w3.org/2000/svg" width="68" height="64" viewBox="0 0 68 64" fill="none" data-inject-url="https://22271054.fs1.hubspotusercontent-na1.net/hubfs/22271054/Yoga_Heart-1.svg" class="svgInject" loading="">
<path d="M63.6288 18.7202C62.4955 12.1602 57.3145 6.88024 50.6764 5.76024C43.7445 4.48574 37.294 7.81144 34.0422 13.2102C34.0161 13.2535 33.9693 13.2802 33.9187 13.2802V13.2802C33.8688 13.2802 33.8225 13.2543 33.7962 13.2119C30.5456 7.97127 24.2552 4.64508 17.1622 5.76024C10.5241 6.88024 5.34311 12.1602 4.20978 18.7202C3.23835 24.6402 5.0193 28.6402 9.55264 33.4402L33.5145 58.4002C33.6764 58.5602 34.1622 58.5602 34.3241 58.4002L58.286 33.2802C62.9812 28.3202 64.6003 24.4802 63.6288 18.7202Z" stroke="black" stroke-width="2.5" stroke-miterlimit="10" style="stroke-dasharray: 181, 183; stroke-dashoffset: 182;"/>
<path d="M4.04785 36.1606H19.105L23.1526 26.0806L28.0098 40.9606L32.8669 26.2406L37.8859 41.6006L42.7431 26.4006L46.7907 36.0006H63.9526" stroke="black" stroke-width="2.5" stroke-miterlimit="10" stroke-linecap="round" stroke-linejoin="round" style="stroke-dasharray: 117, 119; stroke-dashoffset: 118;"/>
</svg>