<svg xmlns="http://www.w3.org/2000/svg" width="64" height="64" viewBox="0 0 64 64" fill="none" data-inject-url="https://22271054.fs1.hubspotusercontent-na1.net/hubfs/22271054/Yoga_Hand%201.svg" class="svgInject" loading="">
<path d="M61.5999 31.3601C61.1199 29.1201 59.1999 24.3201 49.9199 29.2801V15.6801C49.9199 15.0401 49.2799 14.4001 48.6399 14.5601C46.5599 14.8801 42.5599 16.6401 41.5999 24.0001C41.5999 24.0001 38.2399 20.8001 30.5599 13.2801C29.9199 12.6401 28.7999 12.8001 28.1599 13.4401C25.5999 16.8001 27.5199 21.1201 28.4799 22.2401C29.2799 23.2001 31.9999 26.0801 33.4399 27.5201C33.9199 28.1601 34.2399 28.8001 34.2399 29.6001V33.6001C34.2399 34.8801 33.5999 35.8401 32.4799 36.3201L27.1999 38.7201C25.7599 39.3601 23.9999 38.7201 23.3599 37.4401C22.2399 35.3601 20.6399 32.4801 19.9999 31.0401C18.8799 28.4801 20.6399 27.2001 24.9599 22.2401C27.9999 18.8801 26.5599 14.7201 25.4399 12.3201C24.9599 11.3601 23.8399 11.2001 23.0399 11.8401C20.1599 14.4001 15.6799 17.7601 11.5199 23.3601C7.9999 28.0001 6.7199 32.6401 6.3999 35.0401C6.2399 35.8401 5.4399 36.4801 4.6399 36.4801H3.5199C2.8799 36.4801 2.3999 36.9601 2.3999 37.6001V51.2001C2.3999 51.8401 2.8799 52.3201 3.5199 52.3201H21.2799C21.7599 52.3201 22.3999 52.1601 22.8799 52.0001L41.2799 42.4001L60.7999 32.8001C61.4399 32.4801 61.5999 31.8401 61.5999 31.3601Z" stroke="black" stroke-width="2.5" stroke-miterlimit="10" style="stroke-dasharray: 243, 245; stroke-dashoffset: 244;"/>
<path d="M41.4399 24V42.4" stroke="black" stroke-width="2.5" stroke-miterlimit="10" style="stroke-dasharray: 19, 21; stroke-dashoffset: 20;"/>
<path d="M49.7598 29.2803V38.4003" stroke="black" stroke-width="2.5" stroke-miterlimit="10" style="stroke-dasharray: 10, 12; stroke-dashoffset: 11;"/>
</svg>